<svg width="83" height="83" viewBox="0 0 83 83" fill="none" xmlns="http://www.w3.org/2000/svg">
<g clip-path="url(#clip0_21_29)">
<path d="M41 42.6667C38.8903 42.6667 36.828 42.0411 35.0739 40.869C33.3198 39.6969 31.9526 38.031 31.1453 36.082C30.3379 34.1329 30.1267 31.9882 30.5383 29.919C30.9499 27.8499 31.9658 25.9493 33.4575 24.4575C34.9493 22.9658 36.8499 21.9499 38.919 21.5383C40.9882 21.1267 43.1329 21.338 45.082 22.1453C47.031 22.9526 48.6969 24.3198 49.869 26.0739C51.0411 27.828 51.6667 29.8903 51.6667 32C51.6667 34.829 50.5429 37.5421 48.5425 39.5425C46.5421 41.5429 43.829 42.6667 41 42.6667ZM24.1547 42.6667H11.6667C10.9594 42.6667 10.2811 42.3857 9.78105 41.8856C9.28095 41.3855 9 40.7073 9 40C9.02527 36.1709 10.4179 32.4769 12.9268 29.5842C15.4357 26.6915 18.8957 24.7905 22.6827 24.224C23.1227 24.1624 23.5712 24.2116 23.9874 24.3674C24.4035 24.5232 24.7742 24.7804 25.0656 25.1159C25.3571 25.4513 25.5601 25.8542 25.6562 26.2881C25.7523 26.7219 25.7385 27.1729 25.616 27.6C25.2073 29.031 25 30.5119 25 32C25.0008 34.3727 25.5348 36.7149 26.5627 38.8533C26.756 39.2592 26.8436 39.7074 26.8172 40.1562C26.7909 40.6051 26.6515 41.0399 26.412 41.4204C26.1725 41.8009 25.8407 42.1147 25.4475 42.3326C25.0542 42.5505 24.6123 42.6654 24.1627 42.6667H24.1547ZM54.3333 64H27.6667C26.9594 64 26.2811 63.7191 25.781 63.219C25.281 62.7189 25 62.0406 25 61.3333C25 57.0899 26.6857 53.0202 29.6863 50.0196C32.6869 47.019 36.7565 45.3333 41 45.3333C45.2435 45.3333 49.3131 47.019 52.3137 50.0196C55.3143 53.0202 57 57.0899 57 61.3333C57 62.0406 56.7191 62.7189 56.219 63.219C55.7189 63.7191 55.0406 64 54.3333 64ZM57 21.3333C54.8903 21.3333 52.828 20.7078 51.0739 19.5357C49.3198 18.3636 47.9526 16.6977 47.1453 14.7486C46.338 12.7995 46.1267 10.6548 46.5383 8.58571C46.9499 6.51658 47.9658 4.61596 49.4575 3.1242C50.9493 1.63244 52.8499 0.616537 54.919 0.204962C56.9882 -0.206614 59.1329 0.00462166 61.082 0.811956C63.031 1.61929 64.6969 2.98646 65.869 4.74059C67.0411 6.49471 67.6667 8.557 67.6667 10.6667C67.6667 13.4956 66.5429 16.2088 64.5425 18.2091C62.5421 20.2095 59.829 21.3333 57 21.3333ZM25 21.3333C22.8903 21.3333 20.828 20.7078 19.0739 19.5357C17.3198 18.3636 15.9526 16.6977 15.1453 14.7486C14.338 12.7995 14.1267 10.6548 14.5383 8.58571C14.9499 6.51658 15.9658 4.61596 17.4575 3.1242C18.9493 1.63244 20.8499 0.616537 22.919 0.204962C24.9882 -0.206614 27.1329 0.00462166 29.082 0.811956C31.031 1.61929 32.6969 2.98646 33.869 4.74059C35.0411 6.49471 35.6667 8.557 35.6667 10.6667C35.6667 13.4956 34.5429 16.2088 32.5425 18.2091C30.5421 20.2095 27.829 21.3333 25 21.3333ZM70.3333 42.6667H57.8453C57.3957 42.6654 56.9538 42.5505 56.5605 42.3326C56.1673 42.1147 55.8355 41.8009 55.596 41.4204C55.3565 41.0399 55.2171 40.6051 55.1908 40.1562C55.1644 39.7074 55.252 39.2592 55.4453 38.8533C56.4704 36.7142 57.0017 34.3721 57 32C56.9956 30.5112 56.7838 29.0303 56.3707 27.6C56.2475 27.1717 56.2336 26.7193 56.3303 26.2842C56.4271 25.8491 56.6313 25.4452 56.9244 25.1094C57.2175 24.7736 57.5901 24.5166 58.0081 24.3619C58.4261 24.2073 58.8763 24.1598 59.3173 24.224C63.1043 24.7905 66.5643 26.6915 69.0732 29.5842C71.5821 32.4769 72.9747 36.1709 73 40C73 40.7073 72.7191 41.3855 72.219 41.8856C71.7189 42.3857 71.0406 42.6667 70.3333 42.6667Z" fill="#618264"/>
</g>
<path d="M5.46094 74.8516H2.53125V73.1641H5.46094C5.9401 73.1641 6.32812 73.0859 6.625 72.9297C6.92708 72.7682 7.14844 72.5495 7.28906 72.2734C7.42969 71.9922 7.5 71.6719 7.5 71.3125C7.5 70.9635 7.42969 70.638 7.28906 70.3359C7.14844 70.0339 6.92708 69.7891 6.625 69.6016C6.32812 69.4141 5.9401 69.3203 5.46094 69.3203H3.23438V79H1.08594V67.625H5.46094C6.34635 67.625 7.10156 67.7839 7.72656 68.1016C8.35677 68.4141 8.83594 68.849 9.16406 69.4062C9.4974 69.9583 9.66406 70.5885 9.66406 71.2969C9.66406 72.0312 9.4974 72.6641 9.16406 73.1953C8.83594 73.7266 8.35677 74.1354 7.72656 74.4219C7.10156 74.7083 6.34635 74.8516 5.46094 74.8516ZM13.2188 67V79H11.1484V67H13.2188ZM12.8906 74.4688H12.2812C12.2812 73.8802 12.3594 73.3385 12.5156 72.8438C12.6719 72.349 12.8932 71.9193 13.1797 71.5547C13.4661 71.1849 13.8073 70.8984 14.2031 70.6953C14.6042 70.4922 15.0469 70.3906 15.5312 70.3906C15.9479 70.3906 16.3255 70.4505 16.6641 70.5703C17.0078 70.6849 17.3021 70.8698 17.5469 71.125C17.7917 71.3802 17.9792 71.7135 18.1094 72.125C18.2448 72.5312 18.3125 73.026 18.3125 73.6094V79H16.2344V73.5938C16.2344 73.2031 16.1771 72.8958 16.0625 72.6719C15.9479 72.4427 15.7839 72.2786 15.5703 72.1797C15.362 72.0807 15.1042 72.0312 14.7969 72.0312C14.4635 72.0312 14.1771 72.0964 13.9375 72.2266C13.6979 72.3516 13.5 72.526 13.3438 72.75C13.1927 72.974 13.0781 73.2318 13 73.5234C12.9271 73.8151 12.8906 74.1302 12.8906 74.4688ZM19.7656 74.8594V74.6953C19.7656 74.0755 19.8542 73.5052 20.0312 72.9844C20.2083 72.4583 20.4661 72.0026 20.8047 71.6172C21.1432 71.2318 21.5573 70.9323 22.0469 70.7188C22.5365 70.5 23.0938 70.3906 23.7188 70.3906C24.3542 70.3906 24.9167 70.5 25.4062 70.7188C25.901 70.9323 26.3177 71.2318 26.6562 71.6172C26.9948 72.0026 27.2526 72.4583 27.4297 72.9844C27.6068 73.5052 27.6953 74.0755 27.6953 74.6953V74.8594C27.6953 75.474 27.6068 76.0443 27.4297 76.5703C27.2526 77.0911 26.9948 77.5469 26.6562 77.9375C26.3177 78.3229 25.9036 78.6224 25.4141 78.8359C24.9245 79.0495 24.3646 79.1562 23.7344 79.1562C23.1094 79.1562 22.5495 79.0495 22.0547 78.8359C21.5599 78.6224 21.1432 78.3229 20.8047 77.9375C20.4661 77.5469 20.2083 77.0911 20.0312 76.5703C19.8542 76.0443 19.7656 75.474 19.7656 74.8594ZM21.8281 74.6953V74.8594C21.8281 75.2292 21.8646 75.5755 21.9375 75.8984C22.0104 76.2214 22.1224 76.5052 22.2734 76.75C22.4245 76.9948 22.6198 77.1875 22.8594 77.3281C23.1042 77.4635 23.3958 77.5312 23.7344 77.5312C24.0677 77.5312 24.3542 77.4635 24.5938 77.3281C24.8333 77.1875 25.0286 76.9948 25.1797 76.75C25.3359 76.5052 25.4505 76.2214 25.5234 75.8984C25.5964 75.5755 25.6328 75.2292 25.6328 74.8594V74.6953C25.6328 74.3307 25.5964 73.9896 25.5234 73.6719C25.4505 73.349 25.3359 73.0651 25.1797 72.8203C25.0286 72.5703 24.8307 72.375 24.5859 72.2344C24.3464 72.0885 24.0573 72.0156 23.7188 72.0156C23.3854 72.0156 23.099 72.0885 22.8594 72.2344C22.6198 72.375 22.4245 72.5703 22.2734 72.8203C22.1224 73.0651 22.0104 73.349 21.9375 73.6719C21.8646 73.9896 21.8281 74.3307 21.8281 74.6953ZM31.2188 72.3516V79H29.1562V70.5469H31.0938L31.2188 72.3516ZM30.8906 74.4688H30.2812C30.2865 73.8542 30.3698 73.2969 30.5312 72.7969C30.6927 72.2969 30.9193 71.8672 31.2109 71.5078C31.5078 71.1484 31.8594 70.8724 32.2656 70.6797C32.6719 70.487 33.125 70.3906 33.625 70.3906C34.0312 70.3906 34.3984 70.4479 34.7266 70.5625C35.0547 70.6771 35.3359 70.8594 35.5703 71.1094C35.8099 71.3594 35.9922 71.6875 36.1172 72.0938C36.2474 72.4948 36.3125 72.9896 36.3125 73.5781V79H34.2344V73.5625C34.2344 73.1771 34.1771 72.8724 34.0625 72.6484C33.9531 72.4245 33.7917 72.2656 33.5781 72.1719C33.3698 72.0781 33.112 72.0312 32.8047 72.0312C32.487 72.0312 32.2083 72.0964 31.9688 72.2266C31.7344 72.3516 31.5365 72.526 31.375 72.75C31.2188 72.974 31.099 73.2318 31.0156 73.5234C30.9323 73.8151 30.8906 74.1302 30.8906 74.4688ZM41.9297 79.1562C41.2891 79.1562 40.7135 79.0521 40.2031 78.8438C39.6927 78.6354 39.2578 78.3464 38.8984 77.9766C38.5443 77.6016 38.2708 77.1667 38.0781 76.6719C37.8906 76.1719 37.7969 75.6354 37.7969 75.0625V74.75C37.7969 74.099 37.8906 73.5078 38.0781 72.9766C38.2656 72.4401 38.5312 71.9792 38.875 71.5938C39.2188 71.2083 39.6302 70.9115 40.1094 70.7031C40.5885 70.4948 41.1172 70.3906 41.6953 70.3906C42.2943 70.3906 42.8229 70.4922 43.2812 70.6953C43.7396 70.8932 44.1224 71.1745 44.4297 71.5391C44.737 71.9036 44.9688 72.3411 45.125 72.8516C45.2812 73.3568 45.3594 73.9167 45.3594 74.5312V75.3984H38.7344V73.9766H43.3281V73.8203C43.3177 73.4922 43.2552 73.1927 43.1406 72.9219C43.026 72.6458 42.849 72.4271 42.6094 72.2656C42.3698 72.099 42.0599 72.0156 41.6797 72.0156C41.3724 72.0156 41.1042 72.0833 40.875 72.2188C40.651 72.349 40.4635 72.5365 40.3125 72.7812C40.1667 73.0208 40.0573 73.3073 39.9844 73.6406C39.9115 73.974 39.875 74.3438 39.875 74.75V75.0625C39.875 75.4167 39.9219 75.7448 40.0156 76.0469C40.1146 76.349 40.2578 76.612 40.4453 76.8359C40.638 77.0547 40.8672 77.2266 41.1328 77.3516C41.4036 77.4714 41.7109 77.5312 42.0547 77.5312C42.487 77.5312 42.8776 77.4479 43.2266 77.2812C43.5807 77.1094 43.888 76.8568 44.1484 76.5234L45.1875 77.6016C45.0104 77.862 44.7708 78.112 44.4688 78.3516C44.1719 78.5911 43.8125 78.7865 43.3906 78.9375C42.9688 79.0833 42.4818 79.1562 41.9297 79.1562ZM51.2578 73.9297H48.3516L48.3359 72.4141H50.8281C51.2552 72.4141 51.612 72.3542 51.8984 72.2344C52.1849 72.1146 52.401 71.9401 52.5469 71.7109C52.6979 71.4818 52.7734 71.2031 52.7734 70.875C52.7734 70.5104 52.7031 70.2135 52.5625 69.9844C52.4271 69.7552 52.2135 69.5885 51.9219 69.4844C51.6302 69.375 51.2604 69.3203 50.8125 69.3203H49.0469V79H46.8984V67.625H50.8125C51.4583 67.625 52.0339 67.6875 52.5391 67.8125C53.0495 67.9323 53.4818 68.1198 53.8359 68.375C54.1901 68.6302 54.4583 68.9505 54.6406 69.3359C54.8281 69.7214 54.9219 70.1797 54.9219 70.7109C54.9219 71.1797 54.8125 71.612 54.5938 72.0078C54.3802 72.3984 54.0495 72.7161 53.6016 72.9609C53.1589 73.2057 52.5964 73.3464 51.9141 73.3828L51.2578 73.9297ZM51.1641 79H47.7188L48.6172 77.3125H51.1641C51.5911 77.3125 51.9427 77.2422 52.2188 77.1016C52.5 76.9609 52.7083 76.7682 52.8438 76.5234C52.9844 76.2734 53.0547 75.987 53.0547 75.6641C53.0547 75.3099 52.9922 75.0026 52.8672 74.7422C52.7474 74.4818 52.5547 74.2812 52.2891 74.1406C52.0286 74 51.6849 73.9297 51.2578 73.9297H49.0234L49.0391 72.4141H51.8828L52.375 73C53.0312 73.0052 53.5651 73.1354 53.9766 73.3906C54.3932 73.6458 54.7005 73.974 54.8984 74.375C55.0964 74.776 55.1953 75.2083 55.1953 75.6719C55.1953 76.401 55.0365 77.013 54.7188 77.5078C54.4062 78.0026 53.9479 78.375 53.3438 78.625C52.7448 78.875 52.0182 79 51.1641 79ZM56.5312 74.8594V74.6953C56.5312 74.0755 56.6198 73.5052 56.7969 72.9844C56.974 72.4583 57.2318 72.0026 57.5703 71.6172C57.9089 71.2318 58.3229 70.9323 58.8125 70.7188C59.3021 70.5 59.8594 70.3906 60.4844 70.3906C61.1198 70.3906 61.6823 70.5 62.1719 70.7188C62.6667 70.9323 63.0833 71.2318 63.4219 71.6172C63.7604 72.0026 64.0182 72.4583 64.1953 72.9844C64.3724 73.5052 64.4609 74.0755 64.4609 74.6953V74.8594C64.4609 75.474 64.3724 76.0443 64.1953 76.5703C64.0182 77.0911 63.7604 77.5469 63.4219 77.9375C63.0833 78.3229 62.6693 78.6224 62.1797 78.8359C61.6901 79.0495 61.1302 79.1562 60.5 79.1562C59.875 79.1562 59.3151 79.0495 58.8203 78.8359C58.3255 78.6224 57.9089 78.3229 57.5703 77.9375C57.2318 77.5469 56.974 77.0911 56.7969 76.5703C56.6198 76.0443 56.5312 75.474 56.5312 74.8594ZM58.5938 74.6953V74.8594C58.5938 75.2292 58.6302 75.5755 58.7031 75.8984C58.776 76.2214 58.888 76.5052 59.0391 76.75C59.1901 76.9948 59.3854 77.1875 59.625 77.3281C59.8698 77.4635 60.1615 77.5312 60.5 77.5312C60.8333 77.5312 61.1198 77.4635 61.3594 77.3281C61.599 77.1875 61.7943 76.9948 61.9453 76.75C62.1016 76.5052 62.2161 76.2214 62.2891 75.8984C62.362 75.5755 62.3984 75.2292 62.3984 74.8594V74.6953C62.3984 74.3307 62.362 73.9896 62.2891 73.6719C62.2161 73.349 62.1016 73.0651 61.9453 72.8203C61.7943 72.5703 61.5964 72.375 61.3516 72.2344C61.112 72.0885 60.8229 72.0156 60.4844 72.0156C60.151 72.0156 59.8646 72.0885 59.625 72.2344C59.3854 72.375 59.1901 72.5703 59.0391 72.8203C58.888 73.0651 58.776 73.349 58.7031 73.6719C58.6302 73.9896 58.5938 74.3307 58.5938 74.6953ZM65.5938 74.8594V74.6953C65.5938 74.0755 65.6823 73.5052 65.8594 72.9844C66.0365 72.4583 66.2943 72.0026 66.6328 71.6172C66.9714 71.2318 67.3854 70.9323 67.875 70.7188C68.3646 70.5 68.9219 70.3906 69.5469 70.3906C70.1823 70.3906 70.7448 70.5 71.2344 70.7188C71.7292 70.9323 72.1458 71.2318 72.4844 71.6172C72.8229 72.0026 73.0807 72.4583 73.2578 72.9844C73.4349 73.5052 73.5234 74.0755 73.5234 74.6953V74.8594C73.5234 75.474 73.4349 76.0443 73.2578 76.5703C73.0807 77.0911 72.8229 77.5469 72.4844 77.9375C72.1458 78.3229 71.7318 78.6224 71.2422 78.8359C70.7526 79.0495 70.1927 79.1562 69.5625 79.1562C68.9375 79.1562 68.3776 79.0495 67.8828 78.8359C67.388 78.6224 66.9714 78.3229 66.6328 77.9375C66.2943 77.5469 66.0365 77.0911 65.8594 76.5703C65.6823 76.0443 65.5938 75.474 65.5938 74.8594ZM67.6562 74.6953V74.8594C67.6562 75.2292 67.6927 75.5755 67.7656 75.8984C67.8385 76.2214 67.9505 76.5052 68.1016 76.75C68.2526 76.9948 68.4479 77.1875 68.6875 77.3281C68.9323 77.4635 69.224 77.5312 69.5625 77.5312C69.8958 77.5312 70.1823 77.4635 70.4219 77.3281C70.6615 77.1875 70.8568 76.9948 71.0078 76.75C71.1641 76.5052 71.2786 76.2214 71.3516 75.8984C71.4245 75.5755 71.4609 75.2292 71.4609 74.8594V74.6953C71.4609 74.3307 71.4245 73.9896 71.3516 73.6719C71.2786 73.349 71.1641 73.0651 71.0078 72.8203C70.8568 72.5703 70.6589 72.375 70.4141 72.2344C70.1745 72.0885 69.8854 72.0156 69.5469 72.0156C69.2135 72.0156 68.9271 72.0885 68.6875 72.2344C68.4479 72.375 68.2526 72.5703 68.1016 72.8203C67.9505 73.0651 67.8385 73.349 67.7656 73.6719C67.6927 73.9896 67.6562 74.3307 67.6562 74.6953ZM77.0859 66.9922V79H75.0234V66.9922H77.0859ZM82.3828 70.5469L78.7031 74.6797L76.7109 76.7031L76.0547 75.1016L77.5938 73.1641L79.8906 70.5469H82.3828ZM80.2734 79L77.6562 75.0625L79.0312 73.7266L82.6641 79H80.2734Z" fill="#79AC78"/>
<path d="M2.53125 74.8516H2.03125V75.3516H2.53125V74.8516ZM2.53125 73.1641V72.6641H2.03125V73.1641H2.53125ZM6.625 72.9297L6.85788 73.3722L6.86069 73.3707L6.625 72.9297ZM7.28906 72.2734L7.73459 72.5004L7.73628 72.497L7.28906 72.2734ZM6.625 69.6016L6.358 70.0243L6.36132 70.0264L6.625 69.6016ZM3.23438 69.3203V68.8203H2.73438V69.3203H3.23438ZM3.23438 79V79.5H3.73438V79H3.23438ZM1.08594 79H0.585938V79.5H1.08594V79ZM1.08594 67.625V67.125H0.585938V67.625H1.08594ZM7.72656 68.1016L7.49998 68.5473L7.50444 68.5495L7.72656 68.1016ZM9.16406 69.4062L8.73317 69.66L8.73603 69.6647L9.16406 69.4062ZM9.16406 73.1953L8.74052 72.9296L8.73866 72.9326L9.16406 73.1953ZM7.72656 74.4219L7.51966 73.9667L7.51824 73.9673L7.72656 74.4219ZM5.46094 74.3516H2.53125V75.3516H5.46094V74.3516ZM3.03125 74.8516V73.1641H2.03125V74.8516H3.03125ZM2.53125 73.6641H5.46094V72.6641H2.53125V73.6641ZM5.46094 73.6641C5.98871 73.6641 6.46507 73.5789 6.85787 73.3721L6.39213 72.4872C6.19118 72.593 5.8915 72.6641 5.46094 72.6641V73.6641ZM6.86069 73.3707C7.243 73.1663 7.54267 72.8771 7.73458 72.5004L6.84354 72.0465C6.75421 72.2218 6.61117 72.3701 6.38931 72.4887L6.86069 73.3707ZM7.73628 72.497C7.91628 72.137 8 71.7384 8 71.3125H7C7 71.6054 6.9431 71.8473 6.84185 72.0498L7.73628 72.497ZM8 71.3125C8 70.8942 7.9152 70.4962 7.74235 70.1249L6.83577 70.547C6.94417 70.7798 7 71.0329 7 71.3125H8ZM7.74235 70.1249C7.55788 69.7286 7.26761 69.4119 6.88868 69.1767L6.36132 70.0264C6.58655 70.1662 6.739 70.3391 6.83577 70.547L7.74235 70.1249ZM6.892 69.1788C6.49107 68.9256 6.0013 68.8203 5.46094 68.8203V69.8203C5.87891 69.8203 6.16518 69.9025 6.358 70.0243L6.892 69.1788ZM5.46094 68.8203H3.23438V69.8203H5.46094V68.8203ZM2.73438 69.3203V79H3.73438V69.3203H2.73438ZM3.23438 78.5H1.08594V79.5H3.23438V78.5ZM1.58594 79V67.625H0.585938V79H1.58594ZM1.08594 68.125H5.46094V67.125H1.08594V68.125ZM5.46094 68.125C6.28779 68.125 6.9612 68.2734 7.49999 68.5473L7.95314 67.6558C7.24193 67.2943 6.40492 67.125 5.46094 67.125V68.125ZM7.50444 68.5495C8.05564 68.8228 8.45864 69.1936 8.7332 69.6599L9.59493 69.1526C9.21324 68.5043 8.65791 68.0053 7.94869 67.6536L7.50444 68.5495ZM8.73603 69.6647C9.01772 70.1312 9.16406 70.6704 9.16406 71.2969H10.1641C10.1641 70.5067 9.97707 69.7854 9.59209 69.1478L8.73603 69.6647ZM9.16406 71.2969C9.16406 71.9536 9.01588 72.4907 8.74053 72.9296L9.58759 73.4611C9.97892 72.8374 10.1641 72.1089 10.1641 71.2969H9.16406ZM8.73866 72.9326C8.46826 73.3704 8.06976 73.7166 7.51966 73.9667L7.93346 74.8771C8.64378 74.5542 9.20361 74.0828 9.58946 73.4581L8.73866 72.9326ZM7.51824 73.9673C6.97456 74.2165 6.29436 74.3516 5.46094 74.3516V75.3516C6.39835 75.3516 7.22857 75.2001 7.93489 74.8764L7.51824 73.9673ZM13.2188 67H13.7188V66.5H13.2188V67ZM13.2188 79V79.5H13.7188V79H13.2188ZM11.1484 79H10.6484V79.5H11.1484V79ZM11.1484 67V66.5H10.6484V67H11.1484ZM12.8906 74.4688V74.9688H13.3906V74.4688H12.8906ZM12.2812 74.4688H11.7812V74.9688H12.2812V74.4688ZM13.1797 71.5547L13.5729 71.8636L13.575 71.8609L13.1797 71.5547ZM14.2031 70.6953L13.9772 70.2493L13.9748 70.2505L14.2031 70.6953ZM16.6641 70.5703L16.4972 71.0418L16.5059 71.0447L16.6641 70.5703ZM17.5469 71.125L17.186 71.4711L17.5469 71.125ZM18.1094 72.125L17.6326 72.2759L17.635 72.2831L18.1094 72.125ZM18.3125 79V79.5H18.8125V79H18.3125ZM16.2344 79H15.7344V79.5H16.2344V79ZM16.0625 72.6719L15.6153 72.8955L15.6174 72.8996L16.0625 72.6719ZM15.5703 72.1797L15.3558 72.6313L15.3601 72.6333L15.5703 72.1797ZM13.9375 72.2266L14.1688 72.6699L14.1763 72.6659L13.9375 72.2266ZM13.3438 72.75L12.9336 72.4639L12.9292 72.4704L13.3438 72.75ZM13 73.5234L12.517 73.3941L12.5149 73.4022L13 73.5234ZM12.7188 67V79H13.7188V67H12.7188ZM13.2188 78.5H11.1484V79.5H13.2188V78.5ZM11.6484 79V67H10.6484V79H11.6484ZM11.1484 67.5H13.2188V66.5H11.1484V67.5ZM12.8906 73.9688H12.2812V74.9688H12.8906V73.9688ZM12.7812 74.4688C12.7812 73.9245 12.8535 73.4344 12.9924 72.9943L12.0388 72.6932C11.8653 73.2427 11.7812 73.8359 11.7812 74.4688H12.7812ZM12.9924 72.9943C13.1327 72.5501 13.3277 72.1756 13.5728 71.8636L12.7865 71.2458C12.4587 71.663 12.2111 72.1478 12.0388 72.6932L12.9924 72.9943ZM13.575 71.8609C13.8189 71.5459 14.1041 71.3081 14.4314 71.1402L13.9748 70.2505C13.5105 70.4887 13.1134 70.8239 12.7844 71.2485L13.575 71.8609ZM14.429 71.1414C14.7547 70.9764 15.1192 70.8906 15.5312 70.8906V69.8906C14.9746 69.8906 14.4536 70.008 13.9772 70.2493L14.429 71.1414ZM15.5312 70.8906C15.9 70.8906 16.2201 70.9436 16.4973 71.0417L16.8309 70.099C16.4309 69.9574 15.9958 69.8906 15.5312 69.8906V70.8906ZM16.5059 71.0447C16.7747 71.1342 16.9988 71.2759 17.186 71.4711L17.9077 70.7789C17.6053 70.4636 17.2409 70.2356 16.8222 70.096L16.5059 71.0447ZM17.186 71.4711C17.3673 71.6601 17.5206 71.9217 17.6327 72.2759L18.5861 71.9741C18.4377 71.5054 18.216 71.1003 17.9077 70.7789L17.186 71.4711ZM17.635 72.2831C17.7486 72.6237 17.8125 73.0617 17.8125 73.6094H18.8125C18.8125 72.9904 18.741 72.4388 18.5837 71.9669L17.635 72.2831ZM17.8125 73.6094V79H18.8125V73.6094H17.8125ZM18.3125 78.5H16.2344V79.5H18.3125V78.5ZM16.7344 79V73.5938H15.7344V79H16.7344ZM16.7344 73.5938C16.7344 73.1635 16.6728 72.767 16.5076 72.4441L15.6174 72.8996C15.6814 73.0247 15.7344 73.2427 15.7344 73.5938H16.7344ZM16.5097 72.4483C16.3493 72.1274 16.1062 71.8769 15.7805 71.726L15.3601 72.6333C15.4615 72.6804 15.5466 72.758 15.6153 72.8955L16.5097 72.4483ZM15.7848 71.728C15.4911 71.5885 15.1549 71.5312 14.7969 71.5312V72.5312C15.0535 72.5312 15.2329 72.573 15.3558 72.6313L15.7848 71.728ZM14.7969 71.5312C14.3985 71.5312 14.0262 71.6093 13.6987 71.7873L14.1763 72.6659C14.328 72.5834 14.5286 72.5312 14.7969 72.5312V71.5312ZM13.7062 71.7833C13.3945 71.9459 13.1355 72.1746 12.9337 72.4639L13.7538 73.0361C13.8645 72.8774 14.0014 72.7572 14.1688 72.6699L13.7062 71.7833ZM12.9292 72.4704C12.7438 72.7454 12.6078 73.0551 12.517 73.3941L13.483 73.6528C13.5484 73.4084 13.6416 73.2025 13.7583 73.0296L12.9292 72.4704ZM12.5149 73.4022C12.4309 73.7381 12.3906 74.0944 12.3906 74.4688H13.3906C13.3906 74.166 13.4232 73.8921 13.4851 73.6447L12.5149 73.4022ZM20.0312 72.9844L20.5046 73.1453L20.5051 73.1439L20.0312 72.9844ZM22.0469 70.7188L22.2468 71.1771L22.2508 71.1753L22.0469 70.7188ZM25.4062 70.7188L25.2023 71.1753L25.2081 71.1778L25.4062 70.7188ZM27.4297 72.9844L26.9558 73.1439L26.9563 73.1453L27.4297 72.9844ZM27.4297 76.5703L27.9031 76.7313L27.9036 76.7298L27.4297 76.5703ZM26.6562 77.9375L27.0319 78.2675L27.0341 78.265L26.6562 77.9375ZM20.8047 77.9375L20.4268 78.265L20.429 78.2675L20.8047 77.9375ZM20.0312 76.5703L19.5574 76.7298L19.5579 76.7313L20.0312 76.5703ZM22.8594 77.3281L22.6062 77.7595L22.6173 77.7656L22.8594 77.3281ZM24.5938 77.3281L24.8398 77.7635L24.8469 77.7593L24.5938 77.3281ZM25.1797 76.75L24.7582 76.481L24.7542 76.4874L25.1797 76.75ZM25.5234 73.6719L25.0357 73.782L25.0361 73.7837L25.5234 73.6719ZM25.1797 72.8203L24.7516 73.0789L24.7582 73.0893L25.1797 72.8203ZM24.5859 72.2344L24.3259 72.6616L24.3369 72.6679L24.5859 72.2344ZM22.8594 72.2344L23.1125 72.6656L23.1193 72.6615L22.8594 72.2344ZM22.2734 72.8203L22.699 73.0829L22.7014 73.0789L22.2734 72.8203ZM21.9375 73.6719L22.4248 73.7837L22.4252 73.782L21.9375 73.6719ZM20.2656 74.8594V74.6953H19.2656V74.8594H20.2656ZM20.2656 74.6953C20.2656 74.1234 20.3473 73.6082 20.5046 73.1453L19.5579 72.8234C19.3611 73.4022 19.2656 74.0276 19.2656 74.6953H20.2656ZM20.5051 73.1439C20.6628 72.6754 20.889 72.2789 21.1803 71.9472L20.429 71.2872C20.0433 71.7263 19.7538 72.2412 19.5574 72.8249L20.5051 73.1439ZM21.1803 71.9472C21.4684 71.6192 21.8216 71.3625 22.2468 71.1771L21.847 70.2604C21.2929 70.5021 20.818 70.8444 20.429 71.2872L21.1803 71.9472ZM22.2508 71.1753C22.6665 70.9895 23.1525 70.8906 23.7188 70.8906V69.8906C23.035 69.8906 22.4064 70.0105 21.8429 70.2622L22.2508 71.1753ZM23.7188 70.8906C24.2967 70.8906 24.7876 70.99 25.2023 71.1753L25.6102 70.2622C25.0457 70.01 24.4116 69.8906 23.7188 69.8906V70.8906ZM25.2081 71.1778C25.6384 71.3635 25.9934 71.6202 26.2806 71.9472L27.0319 71.2872C26.642 70.8433 26.1637 70.5011 25.6044 70.2597L25.2081 71.1778ZM26.2806 71.9472C26.572 72.2789 26.7981 72.6754 26.9558 73.1439L27.9036 72.8249C27.7071 72.2412 27.4176 71.7263 27.0319 71.2872L26.2806 71.9472ZM26.9563 73.1453C27.1137 73.6082 27.1953 74.1234 27.1953 74.6953H28.1953C28.1953 74.0276 28.0999 73.4022 27.9031 72.8234L26.9563 73.1453ZM27.1953 74.6953V74.8594H28.1953V74.6953H27.1953ZM27.1953 74.8594C27.1953 75.4255 27.1138 75.9414 26.9558 76.4108L27.9036 76.7298C28.0997 76.1472 28.1953 75.5224 28.1953 74.8594H27.1953ZM26.9563 76.4094C26.7987 76.873 26.572 77.2713 26.2784 77.61L27.0341 78.265C27.4176 77.8225 27.7065 77.3093 27.9031 76.7313L26.9563 76.4094ZM26.2806 77.6075C25.9925 77.9355 25.6393 78.1922 25.2142 78.3776L25.614 79.2942C26.168 79.0526 26.6429 78.7103 27.0319 78.2675L26.2806 77.6075ZM25.2142 78.3776C24.7979 78.5592 24.308 78.6562 23.7344 78.6562V79.6562C24.4212 79.6562 25.051 79.5398 25.614 79.2942L25.2142 78.3776ZM23.7344 78.6562C23.1667 78.6562 22.6758 78.5594 22.2528 78.3769L21.8566 79.295C22.4231 79.5395 23.052 79.6562 23.7344 79.6562V78.6562ZM22.2528 78.3769C21.8225 78.1912 21.4675 77.9345 21.1803 77.6075L20.429 78.2675C20.8189 78.7114 21.2973 79.0536 21.8566 79.295L22.2528 78.3769ZM21.1825 77.61C20.889 77.2713 20.6623 76.873 20.5046 76.4094L19.5579 76.7313C19.7544 77.3093 20.0433 77.8225 20.4268 78.265L21.1825 77.61ZM20.5051 76.4108C20.3471 75.9414 20.2656 75.4255 20.2656 74.8594H19.2656C19.2656 75.5224 19.3612 76.1472 19.5574 76.7298L20.5051 76.4108ZM21.3281 74.6953V74.8594H22.3281V74.6953H21.3281ZM21.3281 74.8594C21.3281 75.262 21.3678 75.6456 21.4498 76.0086L22.4252 75.7883C22.3614 75.5055 22.3281 75.1964 22.3281 74.8594H21.3281ZM21.4498 76.0086C21.5331 76.3774 21.6639 76.7142 21.8479 77.0126L22.699 76.4874C22.5809 76.2962 22.4878 76.0653 22.4252 75.7883L21.4498 76.0086ZM21.8479 77.0126C22.0402 77.3242 22.2938 77.5759 22.6063 77.7593L23.1125 76.8969C22.9458 76.7991 22.8087 76.6653 22.699 76.4874L21.8479 77.0126ZM22.6173 77.7656C22.9503 77.9498 23.3289 78.0312 23.7344 78.0312V77.0312C23.4628 77.0312 23.258 76.9773 23.1014 76.8906L22.6173 77.7656ZM23.7344 78.0312C24.1358 78.0312 24.5108 77.9494 24.8398 77.7634L24.3477 76.8928C24.1976 76.9777 23.9996 77.0312 23.7344 77.0312V78.0312ZM24.8469 77.7593C25.1593 77.5759 25.4129 77.3242 25.6052 77.0126L24.7542 76.4874C24.6444 76.6653 24.5073 76.7991 24.3406 76.8969L24.8469 77.7593ZM25.6011 77.019C25.7925 76.7192 25.9273 76.3801 26.0112 76.0086L25.0357 75.7883C24.9738 76.0626 24.8793 76.2912 24.7582 76.481L25.6011 77.019ZM26.0112 76.0086C26.0931 75.6456 26.1328 75.262 26.1328 74.8594H25.1328C25.1328 75.1964 25.0996 75.5055 25.0357 75.7883L26.0112 76.0086ZM26.1328 74.8594V74.6953H25.1328V74.8594H26.1328ZM26.1328 74.6953C26.1328 74.2975 26.093 73.9184 26.0108 73.56L25.0361 73.7837C25.0997 74.0607 25.1328 74.364 25.1328 74.6953H26.1328ZM26.0112 73.5617C25.9273 73.1902 25.7925 72.8511 25.6011 72.5513L24.7582 73.0893C24.8793 73.2791 24.9738 73.5077 25.0357 73.782L26.0112 73.5617ZM25.6076 72.5618C25.4143 72.2418 25.1559 71.9852 24.835 71.8008L24.3369 72.6679C24.5056 72.7648 24.6429 72.8988 24.7517 73.0789L25.6076 72.5618ZM24.8459 71.8073C24.5132 71.6047 24.1299 71.5156 23.7188 71.5156V72.5156C23.9846 72.5156 24.1795 72.5723 24.326 72.6615L24.8459 71.8073ZM23.7188 71.5156C23.3111 71.5156 22.931 71.6054 22.5994 71.8073L23.1193 72.6615C23.2669 72.5716 23.4597 72.5156 23.7188 72.5156V71.5156ZM22.6063 71.8032C22.2912 71.9881 22.0373 72.2443 21.8455 72.5618L22.7014 73.0789C22.8117 72.8963 22.9484 72.7619 23.1125 72.6656L22.6063 71.8032ZM21.8479 72.5578C21.6639 72.8561 21.5331 73.1929 21.4498 73.5617L22.4252 73.782C22.4878 73.505 22.5809 73.2741 22.699 73.0829L21.8479 72.5578ZM21.4502 73.56C21.3679 73.9184 21.3281 74.2975 21.3281 74.6953H22.3281C22.3281 74.364 22.3613 74.0607 22.4248 73.7837L21.4502 73.56ZM31.2188 72.3516H31.7188V72.3343L31.7176 72.317L31.2188 72.3516ZM31.2188 79V79.5H31.7188V79H31.2188ZM29.1562 79H28.6562V79.5H29.1562V79ZM29.1562 70.5469V70.0469H28.6562V70.5469H29.1562ZM31.0938 70.5469L31.5926 70.5123L31.5603 70.0469H31.0938V70.5469ZM30.8906 74.4688V74.9688H31.3906V74.4688H30.8906ZM30.2812 74.4688L29.7813 74.4645L29.777 74.9688H30.2812V74.4688ZM31.2109 71.5078L30.8254 71.1894L30.8227 71.1927L31.2109 71.5078ZM35.5703 71.1094L35.2055 71.4514L35.2093 71.4553L35.5703 71.1094ZM36.1172 72.0938L35.6392 72.2408L35.6416 72.2482L36.1172 72.0938ZM36.3125 79V79.5H36.8125V79H36.3125ZM34.2344 79H33.7344V79.5H34.2344V79ZM34.0625 72.6484L33.6131 72.8679L33.6174 72.8762L34.0625 72.6484ZM33.5781 72.1719L33.3729 72.6279L33.3771 72.6297L33.5781 72.1719ZM31.9688 72.2266L32.2041 72.6678L32.2075 72.6659L31.9688 72.2266ZM31.375 72.75L30.9694 72.4576L30.9649 72.4639L31.375 72.75ZM30.7188 72.3516V79H31.7188V72.3516H30.7188ZM31.2188 78.5H29.1562V79.5H31.2188V78.5ZM29.6562 79V70.5469H28.6562V79H29.6562ZM29.1562 71.0469H31.0938V70.0469H29.1562V71.0469ZM30.5949 70.5814L30.7199 72.3861L31.7176 72.317L31.5926 70.5123L30.5949 70.5814ZM30.8906 73.9688H30.2812V74.9688H30.8906V73.9688ZM30.7812 74.473C30.7861 73.9008 30.8636 73.3948 31.0071 72.9505L30.0554 72.6432C29.876 73.1989 29.7868 73.8076 29.7813 74.4645L30.7812 74.473ZM31.0071 72.9505C31.1521 72.5014 31.3513 72.1283 31.5992 71.8229L30.8227 71.1927C30.4872 71.6061 30.2333 72.0923 30.0554 72.6432L31.0071 72.9505ZM31.5964 71.8263C31.8484 71.5212 32.1422 71.2916 32.4799 71.1314L32.0513 70.2279C31.5765 70.4532 31.1672 70.7757 30.8255 71.1894L31.5964 71.8263ZM32.4799 71.1314C32.812 70.9739 33.1907 70.8906 33.625 70.8906V69.8906C33.0593 69.8906 32.5317 70.0001 32.0513 70.2279L32.4799 71.1314ZM33.625 70.8906C33.9844 70.8906 34.2947 70.9413 34.5617 71.0345L34.8914 70.0905C34.5022 69.9545 34.0781 69.8906 33.625 69.8906V70.8906ZM34.5617 71.0345C34.8148 71.1229 35.0272 71.2611 35.2055 71.4513L35.9351 70.7674C35.6447 70.4577 35.2946 70.2312 34.8914 70.0905L34.5617 71.0345ZM35.2093 71.4553C35.3841 71.6377 35.5321 71.8924 35.6393 72.2408L36.5951 71.9467C36.4523 71.4826 36.2357 71.0811 35.9313 70.7634L35.2093 71.4553ZM35.6416 72.2482C35.7506 72.5839 35.8125 73.0229 35.8125 73.5781H36.8125C36.8125 72.9563 36.7441 72.4057 36.5927 71.9393L35.6416 72.2482ZM35.8125 73.5781V79H36.8125V73.5781H35.8125ZM36.3125 78.5H34.2344V79.5H36.3125V78.5ZM34.7344 79V73.5625H33.7344V79H34.7344ZM34.7344 73.5625C34.7344 73.1362 34.6724 72.7428 34.5076 72.4207L33.6174 72.8762C33.6818 73.002 33.7344 73.218 33.7344 73.5625H34.7344ZM34.5118 72.429C34.3543 72.1066 34.1088 71.8588 33.7791 71.7141L33.3771 72.6297C33.4745 72.6725 33.5519 72.7423 33.6132 72.8679L34.5118 72.429ZM33.7833 71.7159C33.4923 71.585 33.1596 71.5312 32.8047 71.5312V72.5312C33.0643 72.5312 33.2473 72.5713 33.3729 72.6278L33.7833 71.7159ZM32.8047 71.5312C32.4174 71.5312 32.0541 71.6111 31.73 71.7873L32.2075 72.6659C32.3625 72.5816 32.5565 72.5312 32.8047 72.5312V71.5312ZM31.7335 71.7854C31.429 71.9478 31.1737 72.1742 30.9694 72.4576L31.7806 73.0424C31.8992 72.8779 32.0397 72.7554 32.204 72.6677L31.7335 71.7854ZM30.9649 72.4639C30.7738 72.7379 30.6317 73.0471 30.5349 73.3861L31.4964 73.6608C31.5662 73.4164 31.6637 73.21 31.7851 73.0361L30.9649 72.4639ZM30.5349 73.3861C30.4374 73.7272 30.3906 74.0891 30.3906 74.4688H31.3906C31.3906 74.1714 31.4272 73.903 31.4964 73.6608L30.5349 73.3861ZM38.8984 77.9766L38.5349 78.3199L38.5399 78.325L38.8984 77.9766ZM38.0781 76.6719L37.6099 76.8475L37.6122 76.8533L38.0781 76.6719ZM38.0781 72.9766L38.5496 73.143L38.5501 73.1415L38.0781 72.9766ZM43.2812 70.6953L43.0787 71.1525L43.083 71.1543L43.2812 70.6953ZM45.125 72.8516L44.6469 72.9979L44.6473 72.9993L45.125 72.8516ZM45.3594 75.3984V75.8984H45.8594V75.3984H45.3594ZM38.7344 75.3984H38.2344V75.8984H38.7344V75.3984ZM38.7344 73.9766V73.4766H38.2344V73.9766H38.7344ZM43.3281 73.9766V74.4766H43.8281V73.9766H43.3281ZM43.3281 73.8203H43.8281V73.8124L43.8279 73.8044L43.3281 73.8203ZM43.1406 72.9219L42.6788 73.1136L42.6801 73.1167L43.1406 72.9219ZM42.6094 72.2656L42.3238 72.6761L42.3299 72.6803L42.6094 72.2656ZM40.875 72.2188L41.1263 72.651L41.1294 72.6492L40.875 72.2188ZM40.3125 72.7812L39.887 72.5187L39.8854 72.5213L40.3125 72.7812ZM40.0156 76.0469L39.538 76.1951L39.5405 76.2025L40.0156 76.0469ZM40.4453 76.8359L40.0618 77.157L40.0701 77.1665L40.4453 76.8359ZM41.1328 77.3516L40.9199 77.8041L40.9306 77.8088L41.1328 77.3516ZM43.2266 77.2812L43.4421 77.7324L43.4449 77.7311L43.2266 77.2812ZM44.1484 76.5234L44.5085 76.1765L44.1089 75.7619L43.7544 76.2156L44.1484 76.5234ZM45.1875 77.6016L45.601 77.8827L45.8293 77.547L45.5475 77.2546L45.1875 77.6016ZM44.4688 78.3516L44.158 77.9598L44.1547 77.9625L44.4688 78.3516ZM43.3906 78.9375L43.554 79.4101L43.5592 79.4082L43.3906 78.9375ZM41.9297 78.6562C41.3435 78.6562 40.8336 78.561 40.3921 78.3808L40.0142 79.3067C40.5935 79.5431 41.2346 79.6562 41.9297 79.6562V78.6562ZM40.3921 78.3808C39.941 78.1967 39.5651 77.9451 39.257 77.6281L38.5399 78.325C38.9505 78.7476 39.4444 79.0741 40.0142 79.3067L40.3921 78.3808ZM39.2619 77.6333C38.9533 77.3065 38.7141 76.927 38.544 76.4904L37.6122 76.8533C37.8276 77.4064 38.1352 77.8966 38.5349 78.3199L39.2619 77.6333ZM38.5463 76.4963C38.3813 76.0564 38.2969 75.5799 38.2969 75.0625H37.2969C37.2969 75.691 37.3999 76.2873 37.61 76.8474L38.5463 76.4963ZM38.2969 75.0625V74.75H37.2969V75.0625H38.2969ZM38.2969 74.75C38.2969 74.147 38.3837 73.6132 38.5496 73.143L37.6066 72.8102C37.3976 73.4025 37.2969 74.0509 37.2969 74.75H38.2969ZM38.5501 73.1415C38.7182 72.6607 38.9522 72.2584 39.2481 71.9266L38.5019 71.2609C38.1103 71.7 37.8131 72.2195 37.6061 72.8116L38.5501 73.1415ZM39.2481 71.9266C39.5432 71.5958 39.8951 71.3415 40.3087 71.1617L39.91 70.2446C39.3653 70.4814 38.8943 70.8209 38.5019 71.2609L39.2481 71.9266ZM40.3087 71.1617C40.7186 70.9835 41.1784 70.8906 41.6953 70.8906V69.8906C41.0559 69.8906 40.4585 70.0061 39.91 70.2446L40.3087 71.1617ZM41.6953 70.8906C42.2379 70.8906 42.6953 70.9825 43.0787 71.1524L43.4838 70.2382C42.9505 70.0018 42.3507 69.8906 41.6953 69.8906V70.8906ZM43.083 71.1543C43.4737 71.323 43.7924 71.5588 44.0474 71.8613L44.812 71.2168C44.4524 70.7902 44.0055 70.4634 43.4795 70.2363L43.083 71.1543ZM44.0474 71.8613C44.3063 72.1685 44.508 72.5443 44.6469 72.9979L45.6031 72.7052C45.4295 72.138 45.1677 71.6388 44.812 71.2168L44.0474 71.8613ZM44.6473 72.9993C44.7866 73.4496 44.8594 73.9588 44.8594 74.5312H45.8594C45.8594 73.8745 45.7759 73.2639 45.6027 72.7038L44.6473 72.9993ZM44.8594 74.5312V75.3984H45.8594V74.5312H44.8594ZM45.3594 74.8984H38.7344V75.8984H45.3594V74.8984ZM39.2344 75.3984V73.9766H38.2344V75.3984H39.2344ZM38.7344 74.4766H43.3281V73.4766H38.7344V74.4766ZM43.8281 73.9766V73.8203H42.8281V73.9766H43.8281ZM43.8279 73.8044C43.8157 73.4219 43.7423 73.0608 43.6011 72.7271L42.6801 73.1167C42.7681 73.3246 42.8197 73.5625 42.8284 73.8362L43.8279 73.8044ZM43.6024 72.7302C43.4516 72.3669 43.2126 72.0692 42.8888 71.851L42.3299 72.6803C42.4853 72.7849 42.6005 72.9248 42.6788 73.1136L43.6024 72.7302ZM42.8949 71.8552C42.5494 71.6149 42.1313 71.5156 41.6797 71.5156V72.5156C41.9885 72.5156 42.1901 72.5831 42.3238 72.6761L42.8949 71.8552ZM41.6797 71.5156C41.2969 71.5156 40.9381 71.6007 40.6206 71.7883L41.1294 72.6492C41.2703 72.566 41.4479 72.5156 41.6797 72.5156V71.5156ZM40.6237 71.7865C40.321 71.9625 40.0764 72.2117 39.887 72.5187L40.738 73.0438C40.8507 72.8612 40.9811 72.7354 41.1263 72.651L40.6237 71.7865ZM39.8854 72.5213C39.7053 72.8171 39.5782 73.1577 39.4959 73.5338L40.4728 73.7475C40.5364 73.4569 40.628 73.2245 40.7396 73.0412L39.8854 72.5213ZM39.4959 73.5338C39.414 73.9081 39.375 74.3144 39.375 74.75H40.375C40.375 74.3731 40.4089 74.0398 40.4728 73.7475L39.4959 73.5338ZM39.375 74.75V75.0625H40.375V74.75H39.375ZM39.375 75.0625C39.375 75.461 39.4278 75.8396 39.5381 76.1951L40.4932 75.8987C40.416 75.6499 40.375 75.3724 40.375 75.0625H39.375ZM39.5405 76.2025C39.6575 76.5597 39.8301 76.88 40.0619 77.1569L40.8287 76.515C40.6855 76.3439 40.5717 76.1382 40.4908 75.8912L39.5405 76.2025ZM40.0701 77.1665C40.3084 77.4369 40.5929 77.6501 40.9199 77.804L41.3457 76.8992C41.1415 76.8031 40.9677 76.6725 40.8205 76.5054L40.0701 77.1665ZM40.9306 77.8088C41.2745 77.961 41.6524 78.0312 42.0547 78.0312V77.0312C41.7695 77.0312 41.5328 76.9817 41.3351 76.8943L40.9306 77.8088ZM42.0547 78.0312C42.5527 78.0312 43.0182 77.9348 43.4421 77.7324L43.0111 76.8301C42.737 76.961 42.4213 77.0312 42.0547 77.0312V78.0312ZM43.4449 77.7311C43.8727 77.5234 44.2386 77.2201 44.5424 76.8313L43.7544 76.2156C43.5374 76.4934 43.2888 76.6953 43.0083 76.8314L43.4449 77.7311ZM43.7884 76.8704L44.8275 77.9485L45.5475 77.2546L44.5085 76.1765L43.7884 76.8704ZM44.774 77.3204C44.631 77.5308 44.429 77.7449 44.1581 77.9598L44.7794 78.7433C45.1126 78.4791 45.3899 78.1931 45.601 77.8827L44.774 77.3204ZM44.1547 77.9625C43.9083 78.1613 43.6002 78.3314 43.2221 78.4668L43.5592 79.4082C44.0248 79.2415 44.4354 79.0209 44.7828 78.7407L44.1547 77.9625ZM43.2273 78.4649C42.8687 78.5889 42.4388 78.6562 41.9297 78.6562V79.6562C42.5247 79.6562 43.0688 79.5778 43.554 79.4101L43.2273 78.4649ZM51.2578 73.9297V74.4297H51.4388L51.5779 74.3138L51.2578 73.9297ZM48.3516 73.9297L47.8516 73.9348L47.8567 74.4297H48.3516V73.9297ZM48.3359 72.4141V71.9141H47.8308L47.836 72.4192L48.3359 72.4141ZM52.5469 71.7109L52.1293 71.4357L52.125 71.4425L52.5469 71.7109ZM52.5625 69.9844L52.132 70.2388L52.1363 70.2459L52.5625 69.9844ZM51.9219 69.4844L51.7463 69.9526L51.7537 69.9552L51.9219 69.4844ZM49.0469 69.3203V68.8203H48.5469V69.3203H49.0469ZM49.0469 79V79.5H49.5469V79H49.0469ZM46.8984 79H46.3984V79.5H46.8984V79ZM46.8984 67.625V67.125H46.3984V67.625H46.8984ZM52.5391 67.8125L52.419 68.2979L52.4248 68.2993L52.5391 67.8125ZM53.8359 68.375L54.1282 67.9693L53.8359 68.375ZM54.6406 69.3359L54.1886 69.5497L54.191 69.5547L54.6406 69.3359ZM54.5938 72.0078L54.1561 71.766L54.155 71.768L54.5938 72.0078ZM53.6016 72.9609L53.3618 72.5222L53.3596 72.5234L53.6016 72.9609ZM51.9141 73.3828L51.8874 72.8835L51.7215 72.8924L51.594 72.9987L51.9141 73.3828ZM47.7188 79L47.2774 78.765L46.8861 79.5H47.7188V79ZM48.6172 77.3125V76.8125H48.3169L48.1758 77.0775L48.6172 77.3125ZM52.2188 77.1016L51.9951 76.6543L51.9918 76.656L52.2188 77.1016ZM52.8438 76.5234L52.408 76.2783L52.4062 76.2814L52.8438 76.5234ZM52.8672 74.7422L52.4129 74.9512L52.4164 74.9586L52.8672 74.7422ZM52.2891 74.1406L52.0515 74.5806L52.0551 74.5825L52.2891 74.1406ZM49.0234 73.9297L48.5235 73.9245L48.5183 74.4297H49.0234V73.9297ZM49.0391 72.4141V71.9141H48.5442L48.5391 72.4089L49.0391 72.4141ZM51.8828 72.4141L52.2657 72.0925L52.1158 71.9141H51.8828V72.4141ZM52.375 73L51.9921 73.3216L52.1405 73.4982L52.371 73.5L52.375 73ZM53.9766 73.3906L53.713 73.8155L53.7154 73.817L53.9766 73.3906ZM54.7188 77.5078L54.298 77.2377L54.296 77.2408L54.7188 77.5078ZM53.3438 78.625L53.1526 78.163L53.1512 78.1636L53.3438 78.625ZM51.2578 73.4297H48.3516V74.4297H51.2578V73.4297ZM48.8515 73.9245L48.8359 72.4089L47.836 72.4192L47.8516 73.9348L48.8515 73.9245ZM48.3359 72.9141H50.8281V71.9141H48.3359V72.9141ZM50.8281 72.9141C51.2982 72.9141 51.7255 72.8487 52.0913 72.6957L51.7055 71.7731C51.4985 71.8597 51.2122 71.9141 50.8281 71.9141V72.9141ZM52.0913 72.6957C52.4581 72.5423 52.7605 72.3066 52.9687 71.9794L52.125 71.4425C52.0416 71.5736 51.9117 71.6869 51.7055 71.7731L52.0913 72.6957ZM52.9644 71.9861C53.179 71.6604 53.2734 71.2815 53.2734 70.875H52.2734C52.2734 71.1247 52.2168 71.3031 52.1294 71.4358L52.9644 71.9861ZM53.2734 70.875C53.2734 70.4499 53.1918 70.054 52.9887 69.7229L52.1363 70.2459C52.2144 70.3731 52.2734 70.571 52.2734 70.875H53.2734ZM52.993 69.73C52.7886 69.3842 52.4728 69.1502 52.09 69.0135L51.7537 69.9552C51.9543 70.0269 52.0655 70.1262 52.132 70.2387L52.993 69.73ZM52.0974 69.0162C51.7308 68.8787 51.2963 68.8203 50.8125 68.8203V69.8203C51.2245 69.8203 51.5296 69.8713 51.7463 69.9525L52.0974 69.0162ZM50.8125 68.8203H49.0469V69.8203H50.8125V68.8203ZM48.5469 69.3203V79H49.5469V69.3203H48.5469ZM49.0469 78.5H46.8984V79.5H49.0469V78.5ZM47.3984 79V67.625H46.3984V79H47.3984ZM46.8984 68.125H50.8125V67.125H46.8984V68.125ZM50.8125 68.125C51.4271 68.125 51.9611 68.1846 52.419 68.2979L52.6592 67.3271C52.1066 67.1904 51.4895 67.125 50.8125 67.125V68.125ZM52.4248 68.2993C52.8837 68.407 53.2525 68.5709 53.5436 68.7807L54.1282 67.9693C53.7111 67.6687 53.2152 67.4576 52.6533 67.3257L52.4248 68.2993ZM53.5436 68.7807C53.8309 68.9877 54.0434 69.2426 54.1886 69.5497L55.0926 69.1222C54.8733 68.6584 54.5493 68.2728 54.1282 67.9693L53.5436 68.7807ZM54.191 69.5547C54.3384 69.8576 54.4219 70.2377 54.4219 70.7109H55.4219C55.4219 70.1216 55.3179 69.5851 55.0902 69.1172L54.191 69.5547ZM54.4219 70.7109C54.4219 71.0983 54.3324 71.4469 54.1561 71.766L55.0314 72.2497C55.2926 71.777 55.4219 71.2611 55.4219 70.7109H54.4219ZM54.155 71.768C53.9938 72.0628 53.7383 72.3164 53.3618 72.5222L53.8413 73.3997C54.3606 73.1159 54.7666 72.734 55.0325 72.2476L54.155 71.768ZM53.3596 72.5234C53.0021 72.7211 52.5193 72.8498 51.8874 72.8835L51.9407 73.8821C52.6734 73.843 53.3157 73.6904 53.8435 73.3985L53.3596 72.5234ZM51.594 72.9987L50.9377 73.5456L51.5779 74.3138L52.2342 73.7669L51.594 72.9987ZM51.1641 78.5H47.7188V79.5H51.1641V78.5ZM48.1601 79.235L49.0585 77.5475L48.1758 77.0775L47.2774 78.765L48.1601 79.235ZM48.6172 77.8125H51.1641V76.8125H48.6172V77.8125ZM51.1641 77.8125C51.6418 77.8125 52.0779 77.7345 52.4457 77.5471L51.9918 76.656C51.8075 76.7499 51.5405 76.8125 51.1641 76.8125V77.8125ZM52.4424 77.5488C52.8024 77.3688 53.091 77.1094 53.2813 76.7655L52.4062 76.2814C52.3257 76.427 52.1976 76.5531 51.9951 76.6543L52.4424 77.5488ZM53.2795 76.7686C53.4673 76.4347 53.5547 76.0619 53.5547 75.6641H52.5547C52.5547 75.9121 52.5014 76.1122 52.408 76.2783L53.2795 76.7686ZM53.5547 75.6641C53.5547 75.2516 53.4818 74.8673 53.3179 74.5258L52.4164 74.9586C52.5025 75.1379 52.5547 75.3682 52.5547 75.6641H53.5547ZM53.3214 74.5332C53.1534 74.168 52.8806 73.888 52.523 73.6987L52.0551 74.5825C52.2288 74.6745 52.3414 74.7955 52.4129 74.9511L53.3214 74.5332ZM52.5266 73.7007C52.168 73.507 51.7335 73.4297 51.2578 73.4297V74.4297C51.6363 74.4297 51.8892 74.493 52.0515 74.5806L52.5266 73.7007ZM51.2578 73.4297H49.0234V74.4297H51.2578V73.4297ZM49.5234 73.9348L49.539 72.4192L48.5391 72.4089L48.5235 73.9245L49.5234 73.9348ZM49.0391 72.9141H51.8828V71.9141H49.0391V72.9141ZM51.5 72.7357L51.9921 73.3216L52.7579 72.6784L52.2657 72.0925L51.5 72.7357ZM52.371 73.5C52.967 73.5047 53.4026 73.623 53.713 73.8155L54.2401 72.9657C53.7276 72.6479 53.0955 72.5057 52.379 72.5L52.371 73.5ZM53.7154 73.817C54.0593 74.0276 54.2978 74.2877 54.4501 74.5963L55.3468 74.1537C55.1033 73.6602 54.7272 73.264 54.2377 72.9642L53.7154 73.817ZM54.4501 74.5963C54.6128 74.926 54.6953 75.2822 54.6953 75.6719H55.6953C55.6953 75.1345 55.5799 74.6261 55.3468 74.1537L54.4501 74.5963ZM54.6953 75.6719C54.6953 76.3283 54.5528 76.8409 54.298 77.2377L55.1395 77.778C55.5201 77.1852 55.6953 76.4738 55.6953 75.6719H54.6953ZM54.296 77.2408C54.0451 77.6381 53.6729 77.9477 53.1526 78.163L53.5349 79.087C54.2229 78.8023 54.7674 78.3671 55.1415 77.7748L54.296 77.2408ZM53.1512 78.1636C52.6292 78.3814 51.972 78.5 51.1641 78.5V79.5C52.0645 79.5 52.8604 79.3686 53.5363 79.0864L53.1512 78.1636ZM56.7969 72.9844L57.2703 73.1453L57.2707 73.1439L56.7969 72.9844ZM58.8125 70.7188L59.0124 71.1771L59.0165 71.1753L58.8125 70.7188ZM62.1719 70.7188L61.9679 71.1753L61.9737 71.1778L62.1719 70.7188ZM64.1953 72.9844L63.7214 73.1439L63.7219 73.1453L64.1953 72.9844ZM64.1953 76.5703L64.6687 76.7313L64.6692 76.7298L64.1953 76.5703ZM63.4219 77.9375L63.7975 78.2675L63.7997 78.265L63.4219 77.9375ZM57.5703 77.9375L57.1925 78.265L57.1947 78.2675L57.5703 77.9375ZM56.7969 76.5703L56.323 76.7298L56.3235 76.7313L56.7969 76.5703ZM59.625 77.3281L59.3718 77.7595L59.383 77.7656L59.625 77.3281ZM61.3594 77.3281L61.6054 77.7635L61.6125 77.7593L61.3594 77.3281ZM61.9453 76.75L61.5238 76.481L61.5198 76.4874L61.9453 76.75ZM62.2891 73.6719L61.8013 73.782L61.8017 73.7837L62.2891 73.6719ZM61.9453 72.8203L61.5172 73.0789L61.5239 73.0893L61.9453 72.8203ZM61.3516 72.2344L61.0915 72.6616L61.1025 72.6679L61.3516 72.2344ZM59.625 72.2344L59.8781 72.6656L59.885 72.6615L59.625 72.2344ZM59.0391 72.8203L59.4646 73.0829L59.467 73.0789L59.0391 72.8203ZM58.7031 73.6719L59.1905 73.7837L59.1908 73.782L58.7031 73.6719ZM57.0312 74.8594V74.6953H56.0312V74.8594H57.0312ZM57.0312 74.6953C57.0312 74.1234 57.1129 73.6082 57.2703 73.1453L56.3235 72.8234C56.1267 73.4022 56.0312 74.0276 56.0312 74.6953H57.0312ZM57.2707 73.1439C57.4284 72.6754 57.6546 72.2789 57.946 71.9472L57.1947 71.2872C56.8089 71.7263 56.5195 72.2412 56.323 72.8249L57.2707 73.1439ZM57.946 71.9472C58.2341 71.6192 58.5873 71.3625 59.0124 71.1771L58.6126 70.2604C58.0586 70.5021 57.5837 70.8444 57.1947 71.2872L57.946 71.9472ZM59.0165 71.1753C59.4321 70.9895 59.9181 70.8906 60.4844 70.8906V69.8906C59.8006 69.8906 59.172 70.0105 58.6085 70.2622L59.0165 71.1753ZM60.4844 70.8906C61.0623 70.8906 61.5533 70.99 61.9679 71.1753L62.3758 70.2622C61.8113 70.01 61.1773 69.8906 60.4844 69.8906V70.8906ZM61.9737 71.1778C62.4041 71.3635 62.759 71.6202 63.0462 71.9472L63.7975 71.2872C63.4076 70.8433 62.9293 70.5011 62.37 70.2597L61.9737 71.1778ZM63.0462 71.9472C63.3376 72.2789 63.5637 72.6754 63.7214 73.1439L64.6692 72.8249C64.4727 72.2412 64.1833 71.7263 63.7975 71.2872L63.0462 71.9472ZM63.7219 73.1453C63.8793 73.6082 63.9609 74.1234 63.9609 74.6953H64.9609C64.9609 74.0276 64.8655 73.4022 64.6687 72.8234L63.7219 73.1453ZM63.9609 74.6953V74.8594H64.9609V74.6953H63.9609ZM63.9609 74.8594C63.9609 75.4255 63.8795 75.9414 63.7214 76.4108L64.6692 76.7298C64.8653 76.1472 64.9609 75.5224 64.9609 74.8594H63.9609ZM63.7219 76.4094C63.5643 76.873 63.3376 77.2713 63.044 77.61L63.7997 78.265C64.1832 77.8225 64.4722 77.3093 64.6687 76.7313L63.7219 76.4094ZM63.0462 77.6075C62.7581 77.9355 62.4049 78.1922 61.9798 78.3776L62.3796 79.2942C62.9336 79.0526 63.4085 78.7103 63.7975 78.2675L63.0462 77.6075ZM61.9798 78.3776C61.5636 78.5592 61.0736 78.6562 60.5 78.6562V79.6562C61.1868 79.6562 61.8166 79.5398 62.3796 79.2942L61.9798 78.3776ZM60.5 78.6562C59.9324 78.6562 59.4415 78.5594 59.0184 78.3769L58.6222 79.295C59.1887 79.5395 59.8176 79.6562 60.5 79.6562V78.6562ZM59.0184 78.3769C58.5881 78.1912 58.2332 77.9345 57.946 77.6075L57.1947 78.2675C57.5845 78.7114 58.0629 79.0536 58.6222 79.295L59.0184 78.3769ZM57.9482 77.61C57.6546 77.2713 57.4279 76.873 57.2703 76.4094L56.3235 76.7313C56.52 77.3093 56.809 77.8225 57.1925 78.265L57.9482 77.61ZM57.2707 76.4108C57.1127 75.9414 57.0312 75.4255 57.0312 74.8594H56.0312C56.0312 75.5224 56.1269 76.1472 56.323 76.7298L57.2707 76.4108ZM58.0938 74.6953V74.8594H59.0938V74.6953H58.0938ZM58.0938 74.8594C58.0938 75.262 58.1334 75.6456 58.2154 76.0086L59.1908 75.7883C59.127 75.5055 59.0938 75.1964 59.0938 74.8594H58.0938ZM58.2154 76.0086C58.2987 76.3774 58.4295 76.7142 58.6135 77.0126L59.4646 76.4874C59.3466 76.2962 59.2534 76.0653 59.1908 75.7883L58.2154 76.0086ZM58.6135 77.0126C58.8059 77.3242 59.0594 77.5759 59.3719 77.7593L59.8781 76.8969C59.7114 76.7991 59.5743 76.6653 59.4646 76.4874L58.6135 77.0126ZM59.383 77.7656C59.7159 77.9498 60.0945 78.0312 60.5 78.0312V77.0312C60.2284 77.0312 60.0237 76.9773 59.867 76.8906L59.383 77.7656ZM60.5 78.0312C60.9014 78.0312 61.2764 77.9494 61.6054 77.7634L61.1133 76.8928C60.9632 76.9777 60.7653 77.0312 60.5 77.0312V78.0312ZM61.6125 77.7593C61.925 77.5759 62.1785 77.3242 62.3708 77.0126L61.5198 76.4874C61.41 76.6653 61.2729 76.7991 61.1063 76.8969L61.6125 77.7593ZM62.3668 77.019C62.5582 76.7192 62.6929 76.3801 62.7768 76.0086L61.8013 75.7883C61.7394 76.0626 61.645 76.2912 61.5239 76.481L62.3668 77.019ZM62.7768 76.0086C62.8587 75.6456 62.8984 75.262 62.8984 74.8594H61.8984C61.8984 75.1964 61.8652 75.5055 61.8013 75.7883L62.7768 76.0086ZM62.8984 74.8594V74.6953H61.8984V74.8594H62.8984ZM62.8984 74.6953C62.8984 74.2975 62.8587 73.9184 62.7764 73.56L61.8017 73.7837C61.8653 74.0607 61.8984 74.364 61.8984 74.6953H62.8984ZM62.7768 73.5617C62.6929 73.1902 62.5582 72.8511 62.3668 72.5513L61.5239 73.0893C61.645 73.2791 61.7394 73.5077 61.8013 73.782L62.7768 73.5617ZM62.3733 72.5618C62.18 72.2418 61.9215 71.9852 61.6006 71.8008L61.1025 72.6679C61.2712 72.7648 61.4086 72.8988 61.5174 73.0789L62.3733 72.5618ZM61.6115 71.8073C61.2788 71.6047 60.8956 71.5156 60.4844 71.5156V72.5156C60.7503 72.5156 60.9452 72.5723 61.0916 72.6615L61.6115 71.8073ZM60.4844 71.5156C60.0768 71.5156 59.6966 71.6054 59.365 71.8073L59.885 72.6615C60.0326 72.5716 60.2253 72.5156 60.4844 72.5156V71.5156ZM59.3719 71.8032C59.0569 71.9881 58.8029 72.2443 58.6111 72.5618L59.467 73.0789C59.5773 72.8963 59.714 72.7619 59.8781 72.6656L59.3719 71.8032ZM58.6135 72.5578C58.4295 72.8561 58.2987 73.1929 58.2154 73.5617L59.1908 73.782C59.2534 73.505 59.3466 73.2741 59.4646 73.0829L58.6135 72.5578ZM58.2158 73.56C58.1335 73.9184 58.0938 74.2975 58.0938 74.6953H59.0938C59.0938 74.364 59.1269 74.0607 59.1905 73.7837L58.2158 73.56ZM65.8594 72.9844L66.3328 73.1453L66.3332 73.1439L65.8594 72.9844ZM67.875 70.7188L68.0749 71.1771L68.079 71.1753L67.875 70.7188ZM71.2344 70.7188L71.0304 71.1753L71.0362 71.1778L71.2344 70.7188ZM73.2578 72.9844L72.7839 73.1439L72.7844 73.1453L73.2578 72.9844ZM73.2578 76.5703L73.7312 76.7313L73.7317 76.7298L73.2578 76.5703ZM72.4844 77.9375L72.86 78.2675L72.8622 78.265L72.4844 77.9375ZM66.6328 77.9375L66.255 78.265L66.2572 78.2675L66.6328 77.9375ZM65.8594 76.5703L65.3855 76.7298L65.386 76.7313L65.8594 76.5703ZM68.6875 77.3281L68.4343 77.7595L68.4455 77.7656L68.6875 77.3281ZM70.4219 77.3281L70.6679 77.7635L70.675 77.7593L70.4219 77.3281ZM71.0078 76.75L70.5863 76.481L70.5823 76.4874L71.0078 76.75ZM71.3516 73.6719L70.8638 73.782L70.8642 73.7837L71.3516 73.6719ZM71.0078 72.8203L70.5797 73.0789L70.5864 73.0893L71.0078 72.8203ZM70.4141 72.2344L70.154 72.6616L70.165 72.6679L70.4141 72.2344ZM68.6875 72.2344L68.9406 72.6656L68.9475 72.6615L68.6875 72.2344ZM68.1016 72.8203L68.5271 73.0829L68.5295 73.0789L68.1016 72.8203ZM67.7656 73.6719L68.253 73.7837L68.2533 73.782L67.7656 73.6719ZM66.0938 74.8594V74.6953H65.0938V74.8594H66.0938ZM66.0938 74.6953C66.0938 74.1234 66.1754 73.6082 66.3328 73.1453L65.386 72.8234C65.1892 73.4022 65.0938 74.0276 65.0938 74.6953H66.0938ZM66.3332 73.1439C66.4909 72.6754 66.7171 72.2789 67.0085 71.9472L66.2572 71.2872C65.8714 71.7263 65.582 72.2412 65.3855 72.8249L66.3332 73.1439ZM67.0085 71.9472C67.2966 71.6192 67.6498 71.3625 68.0749 71.1771L67.6751 70.2604C67.1211 70.5021 66.6462 70.8444 66.2572 71.2872L67.0085 71.9472ZM68.079 71.1753C68.4946 70.9895 68.9806 70.8906 69.5469 70.8906V69.8906C68.8631 69.8906 68.2345 70.0105 67.671 70.2622L68.079 71.1753ZM69.5469 70.8906C70.1248 70.8906 70.6158 70.99 71.0304 71.1753L71.4383 70.2622C70.8738 70.01 70.2398 69.8906 69.5469 69.8906V70.8906ZM71.0362 71.1778C71.4666 71.3635 71.8215 71.6202 72.1087 71.9472L72.86 71.2872C72.4701 70.8433 71.9918 70.5011 71.4325 70.2597L71.0362 71.1778ZM72.1087 71.9472C72.4001 72.2789 72.6262 72.6754 72.7839 73.1439L73.7317 72.8249C73.5352 72.2412 73.2458 71.7263 72.86 71.2872L72.1087 71.9472ZM72.7844 73.1453C72.9418 73.6082 73.0234 74.1234 73.0234 74.6953H74.0234C74.0234 74.0276 73.928 73.4022 73.7312 72.8234L72.7844 73.1453ZM73.0234 74.6953V74.8594H74.0234V74.6953H73.0234ZM73.0234 74.8594C73.0234 75.4255 72.942 75.9414 72.7839 76.4108L73.7317 76.7298C73.9278 76.1472 74.0234 75.5224 74.0234 74.8594H73.0234ZM72.7844 76.4094C72.6268 76.873 72.4001 77.2713 72.1065 77.61L72.8622 78.265C73.2457 77.8225 73.5347 77.3093 73.7312 76.7313L72.7844 76.4094ZM72.1087 77.6075C71.8206 77.9355 71.4674 78.1922 71.0423 78.3776L71.4421 79.2942C71.9961 79.0526 72.471 78.7103 72.86 78.2675L72.1087 77.6075ZM71.0423 78.3776C70.6261 78.5592 70.1361 78.6562 69.5625 78.6562V79.6562C70.2493 79.6562 70.8791 79.5398 71.4421 79.2942L71.0423 78.3776ZM69.5625 78.6562C68.9949 78.6562 68.504 78.5594 68.0809 78.3769L67.6847 79.295C68.2512 79.5395 68.8801 79.6562 69.5625 79.6562V78.6562ZM68.0809 78.3769C67.6506 78.1912 67.2957 77.9345 67.0085 77.6075L66.2572 78.2675C66.647 78.7114 67.1254 79.0536 67.6847 79.295L68.0809 78.3769ZM67.0107 77.61C66.7171 77.2713 66.4904 76.873 66.3328 76.4094L65.386 76.7313C65.5825 77.3093 65.8715 77.8225 66.255 78.265L67.0107 77.61ZM66.3332 76.4108C66.1752 75.9414 66.0938 75.4255 66.0938 74.8594H65.0938C65.0938 75.5224 65.1894 76.1472 65.3855 76.7298L66.3332 76.4108ZM67.1562 74.6953V74.8594H68.1562V74.6953H67.1562ZM67.1562 74.8594C67.1562 75.262 67.1959 75.6456 67.2779 76.0086L68.2533 75.7883C68.1895 75.5055 68.1562 75.1964 68.1562 74.8594H67.1562ZM67.2779 76.0086C67.3612 76.3774 67.492 76.7142 67.676 77.0126L68.5271 76.4874C68.4091 76.2962 68.3159 76.0653 68.2533 75.7883L67.2779 76.0086ZM67.676 77.0126C67.8684 77.3242 68.1219 77.5759 68.4344 77.7593L68.9406 76.8969C68.7739 76.7991 68.6368 76.6653 68.5271 76.4874L67.676 77.0126ZM68.4455 77.7656C68.7784 77.9498 69.157 78.0312 69.5625 78.0312V77.0312C69.2909 77.0312 69.0862 76.9773 68.9295 76.8906L68.4455 77.7656ZM69.5625 78.0312C69.9639 78.0312 70.3389 77.9494 70.6679 77.7634L70.1758 76.8928C70.0257 76.9777 69.8278 77.0312 69.5625 77.0312V78.0312ZM70.675 77.7593C70.9875 77.5759 71.241 77.3242 71.4333 77.0126L70.5823 76.4874C70.4725 76.6653 70.3354 76.7991 70.1688 76.8969L70.675 77.7593ZM71.4293 77.019C71.6207 76.7192 71.7554 76.3801 71.8393 76.0086L70.8638 75.7883C70.8019 76.0626 70.7075 76.2912 70.5864 76.481L71.4293 77.019ZM71.8393 76.0086C71.9212 75.6456 71.9609 75.262 71.9609 74.8594H70.9609C70.9609 75.1964 70.9277 75.5055 70.8638 75.7883L71.8393 76.0086ZM71.9609 74.8594V74.6953H70.9609V74.8594H71.9609ZM71.9609 74.6953C71.9609 74.2975 71.9212 73.9184 71.8389 73.56L70.8642 73.7837C70.9278 74.0607 70.9609 74.364 70.9609 74.6953H71.9609ZM71.8393 73.5617C71.7554 73.1902 71.6207 72.8511 71.4293 72.5513L70.5864 73.0893C70.7075 73.2791 70.8019 73.5077 70.8638 73.782L71.8393 73.5617ZM71.4358 72.5618C71.2425 72.2418 70.984 71.9852 70.6631 71.8008L70.165 72.6679C70.3337 72.7648 70.4711 72.8988 70.5799 73.0789L71.4358 72.5618ZM70.674 71.8073C70.3413 71.6047 69.9581 71.5156 69.5469 71.5156V72.5156C69.8128 72.5156 70.0077 72.5723 70.1541 72.6615L70.674 71.8073ZM69.5469 71.5156C69.1393 71.5156 68.7591 71.6054 68.4275 71.8073L68.9475 72.6615C69.0951 72.5716 69.2878 72.5156 69.5469 72.5156V71.5156ZM68.4344 71.8032C68.1194 71.9881 67.8654 72.2443 67.6736 72.5618L68.5295 73.0789C68.6398 72.8963 68.7765 72.7619 68.9406 72.6656L68.4344 71.8032ZM67.676 72.5578C67.492 72.8561 67.3612 73.1929 67.2779 73.5617L68.2533 73.782C68.3159 73.505 68.4091 73.2741 68.5271 73.0829L67.676 72.5578ZM67.2783 73.56C67.196 73.9184 67.1562 74.2975 67.1562 74.6953H68.1562C68.1562 74.364 68.1894 74.0607 68.253 73.7837L67.2783 73.56ZM77.0859 66.9922H77.5859V66.4922H77.0859V66.9922ZM77.0859 79V79.5H77.5859V79H77.0859ZM75.0234 79H74.5234V79.5H75.0234V79ZM75.0234 66.9922V66.4922H74.5234V66.9922H75.0234ZM82.3828 70.5469L82.7562 70.8794L83.4975 70.0469H82.3828V70.5469ZM78.7031 74.6797L79.0594 75.0305L79.0682 75.0215L79.0766 75.0122L78.7031 74.6797ZM76.7109 76.7031L76.2483 76.8927L76.5356 77.5939L77.0672 77.0539L76.7109 76.7031ZM76.0547 75.1016L75.6632 74.7906L75.4809 75.02L75.592 75.2911L76.0547 75.1016ZM77.5938 73.1641L77.2179 72.8343L77.2099 72.8435L77.2022 72.8531L77.5938 73.1641ZM79.8906 70.5469V70.0469H79.6642L79.5148 70.2171L79.8906 70.5469ZM80.2734 79L79.857 79.2768L80.0054 79.5H80.2734V79ZM77.6562 75.0625L77.3078 74.7039L77.0099 74.9933L77.2398 75.3393L77.6562 75.0625ZM79.0312 73.7266L79.443 73.4429L79.1073 72.9556L78.6828 73.368L79.0312 73.7266ZM82.6641 79V79.5H83.6157L83.0758 78.7163L82.6641 79ZM76.5859 66.9922V79H77.5859V66.9922H76.5859ZM77.0859 78.5H75.0234V79.5H77.0859V78.5ZM75.5234 79V66.9922H74.5234V79H75.5234ZM75.0234 67.4922H77.0859V66.4922H75.0234V67.4922ZM82.0094 70.2144L78.3297 74.3472L79.0766 75.0122L82.7562 70.8794L82.0094 70.2144ZM78.3468 74.3289L76.3546 76.3523L77.0672 77.0539L79.0594 75.0305L78.3468 74.3289ZM77.1736 76.5135L76.5174 74.912L75.592 75.2911L76.2483 76.8927L77.1736 76.5135ZM76.4462 75.4126L77.9853 73.4751L77.2022 72.8531L75.6632 74.7906L76.4462 75.4126ZM77.9696 73.4939L80.2664 70.8767L79.5148 70.2171L77.2179 72.8343L77.9696 73.4939ZM79.8906 71.0469H82.3828V70.0469H79.8906V71.0469ZM80.6898 78.7232L78.0727 74.7857L77.2398 75.3393L79.857 79.2768L80.6898 78.7232ZM78.0047 75.4211L79.3797 74.0852L78.6828 73.368L77.3078 74.7039L78.0047 75.4211ZM78.6195 74.0102L82.2523 79.2837L83.0758 78.7163L79.443 73.4429L78.6195 74.0102ZM82.6641 78.5H80.2734V79.5H82.6641V78.5Z" fill="#D0E7D2"/>
<defs>
<clipPath id="clip0_21_29">
<rect width="64" height="64" fill="white" transform="translate(9)"/>
</clipPath>
</defs>
</svg>
