<svg width="16" height="16" viewBox="0 0 16 16" fill="none" xmlns="http://www.w3.org/2000/svg">
<path d="M5.3335 5.71429H6.66683V12.5714H5.3335V5.71429Z" fill="#D0E7D2"/>
<path d="M9.3335 5.71429H10.6668V12.5714H9.3335V5.71429Z" fill="#D0E7D2"/>
<path d="M0 2.28571V3.42857H1.33333V14.8571C1.33333 15.1602 1.47381 15.4509 1.72386 15.6653C1.97391 15.8796 2.31304 16 2.66667 16H13.3333C13.687 16 14.0261 15.8796 14.2761 15.6653C14.5262 15.4509 14.6667 15.1602 14.6667 14.8571V3.42857H16V2.28571H0ZM2.66667 14.8571V3.42857H13.3333V14.8571H2.66667Z" fill="#D0E7D2"/>
<path d="M5.3335 0H10.6668V1.14286H5.3335V0Z" fill="#D0E7D2"/>
</svg>
