<svg width="18" height="24" viewBox="0 0 18 24" fill="none" xmlns="http://www.w3.org/2000/svg">
<g clip-path="url(#clip0_4_193)">
<path d="M10 13C10 12.4477 9.55229 12 9 12C8.44772 12 8 12.4477 8 13V15C8 15.5523 8.44772 16 9 16C9.55229 16 10 15.5523 10 15V13Z" fill="#79AC78" fill-opacity="0.25"/>
<path fill-rule="evenodd" clip-rule="evenodd" d="M4 7.12037C2.3161 7.53217 1 8.95979 1 10.7692V16.3077C1 18.973 3.31545 21 6 21H12C14.6846 21 17 18.973 17 16.3077V10.7692C17 8.95979 15.6839 7.53217 14 7.12037V6C14 3.23858 11.7614 1 9 1C6.23858 1 4 3.23858 4 6V7.12037ZM12 6V7H6V6C6 5.64936 6.06015 5.31278 6.17071 5C6.58254 3.83481 7.69378 3 9 3C10.3062 3 11.4175 3.83481 11.8293 5C11.9398 5.31278 12 5.64936 12 6ZM3 10.7692C3 9.86597 3.81856 9 5 9H13C14.1814 9 15 9.86597 15 10.7692V16.3077C15 17.7208 13.7337 19 12 19H6C4.26627 19 3 17.7208 3 16.3077V10.7692Z" fill="#79AC78" fill-opacity="0.25"/>
</g>
<defs>
<clipPath id="clip0_4_193">
<rect width="18" height="24" fill="white"/>
</clipPath>
</defs>
</svg>
